<mxfile modified="2020-10-12T18:22:02.101Z" host="111f3680-ab87-48e4-b72c-500894c816b8" agent="5.0 (Macintosh; Intel Mac OS X 10_15_6) AppleWebKit/537.36 (KHTML, like Gecko) Code/1.49.0 Chrome/83.0.4103.122 Electron/9.2.1 Safari/537.36" etag="BTb8y4C1mGpIWTaBeyPu" version="13.6.5">
    <diagram id="Ht1M8jgEwFfnCIfOTk4-" name="Page-1">
        <mxGraphModel dx="2306" dy="1751" grid="1" gridSize="10" guides="1" tooltips="1" connect="1" arrows="1" fold="1" page="1" pageScale="1" pageWidth="1169" pageHeight="827" math="0" shadow="0">
            <root>
                <mxCell id="0"/>
                <mxCell id="1" parent="0"/>
                <mxCell id="J9Esz4CEdEwf7AcvDHHo-10" value="Private subnets (2)" style="points=[[0,0],[0.25,0],[0.5,0],[0.75,0],[1,0],[1,0.25],[1,0.5],[1,0.75],[1,1],[0.75,1],[0.5,1],[0.25,1],[0,1],[0,0.75],[0,0.5],[0,0.25]];outlineConnect=0;gradientColor=none;html=1;whiteSpace=wrap;fontSize=12;fontStyle=0;shape=mxgraph.aws4.group;grIcon=mxgraph.aws4.group_security_group;grStroke=0;strokeColor=#147EBA;fillColor=#E6F2F8;verticalAlign=top;align=left;spacingLeft=30;fontColor=#147EBA;dashed=0;" parent="1" vertex="1">
                    <mxGeometry x="230" y="-710" width="200" height="240" as="geometry"/>
                </mxCell>
                <mxCell id="J9Esz4CEdEwf7AcvDHHo-8" value="VPC" style="points=[[0,0],[0.25,0],[0.5,0],[0.75,0],[1,0],[1,0.25],[1,0.5],[1,0.75],[1,1],[0.75,1],[0.5,1],[0.25,1],[0,1],[0,0.75],[0,0.5],[0,0.25]];outlineConnect=0;gradientColor=none;html=1;whiteSpace=wrap;fontSize=12;fontStyle=0;shape=mxgraph.aws4.group;grIcon=mxgraph.aws4.group_vpc;strokeColor=#248814;fillColor=none;verticalAlign=top;align=left;spacingLeft=30;fontColor=#AAB7B8;dashed=0;" parent="1" vertex="1">
                    <mxGeometry x="-30" y="-750" width="550" height="400" as="geometry"/>
                </mxCell>
                <mxCell id="J9Esz4CEdEwf7AcvDHHo-9" value="Public subnets (2)" style="points=[[0,0],[0.25,0],[0.5,0],[0.75,0],[1,0],[1,0.25],[1,0.5],[1,0.75],[1,1],[0.75,1],[0.5,1],[0.25,1],[0,1],[0,0.75],[0,0.5],[0,0.25]];outlineConnect=0;gradientColor=none;html=1;whiteSpace=wrap;fontSize=12;fontStyle=0;shape=mxgraph.aws4.group;grIcon=mxgraph.aws4.group_security_group;grStroke=0;strokeColor=#248814;fillColor=#E9F3E6;verticalAlign=top;align=left;spacingLeft=30;fontColor=#248814;dashed=0;" parent="1" vertex="1">
                    <mxGeometry x="-10" y="-710" width="200" height="240" as="geometry"/>
                </mxCell>
                <mxCell id="J9Esz4CEdEwf7AcvDHHo-24" value="" style="edgeStyle=orthogonalEdgeStyle;rounded=0;orthogonalLoop=1;jettySize=auto;html=1;" parent="1" source="J9Esz4CEdEwf7AcvDHHo-5" target="J9Esz4CEdEwf7AcvDHHo-4" edge="1">
                    <mxGeometry relative="1" as="geometry">
                        <mxPoint x="200.00093359058928" y="-645" as="targetPoint"/>
                        <Array as="points">
                            <mxPoint x="250" y="-645"/>
                            <mxPoint x="250" y="-645"/>
                        </Array>
                    </mxGeometry>
                </mxCell>
                <mxCell id="J9Esz4CEdEwf7AcvDHHo-5" value="ALBs" style="outlineConnect=0;fontColor=#232F3E;gradientColor=none;fillColor=#5A30B5;strokeColor=none;dashed=0;verticalLabelPosition=bottom;verticalAlign=top;align=center;html=1;fontSize=12;fontStyle=0;aspect=fixed;pointerEvents=1;shape=mxgraph.aws4.application_load_balancer;" parent="1" vertex="1">
                    <mxGeometry x="60" y="-675" width="60" height="60" as="geometry"/>
                </mxCell>
                <mxCell id="J9Esz4CEdEwf7AcvDHHo-30" style="edgeStyle=orthogonalEdgeStyle;rounded=0;orthogonalLoop=1;jettySize=auto;html=1;startArrow=none;startFill=0;" parent="1" source="J9Esz4CEdEwf7AcvDHHo-6" target="J9Esz4CEdEwf7AcvDHHo-27" edge="1">
                    <mxGeometry relative="1" as="geometry">
                        <Array as="points">
                            <mxPoint x="-60" y="-550"/>
                            <mxPoint x="-60" y="-645"/>
                        </Array>
                    </mxGeometry>
                </mxCell>
                <mxCell id="J9Esz4CEdEwf7AcvDHHo-6" value="NAT Gateway" style="outlineConnect=0;dashed=0;verticalLabelPosition=bottom;verticalAlign=top;align=center;html=1;shape=mxgraph.aws3.vpc_nat_gateway;fillColor=#F58536;gradientColor=none;" parent="1" vertex="1">
                    <mxGeometry x="60" y="-581" width="60" height="61" as="geometry"/>
                </mxCell>
                <mxCell id="J9Esz4CEdEwf7AcvDHHo-22" value="" style="edgeStyle=orthogonalEdgeStyle;rounded=0;orthogonalLoop=1;jettySize=auto;html=1;startArrow=classic;startFill=1;" parent="1" source="J9Esz4CEdEwf7AcvDHHo-4" target="J9Esz4CEdEwf7AcvDHHo-21" edge="1">
                    <mxGeometry relative="1" as="geometry"/>
                </mxCell>
                <mxCell id="J9Esz4CEdEwf7AcvDHHo-25" style="edgeStyle=orthogonalEdgeStyle;rounded=0;orthogonalLoop=1;jettySize=auto;html=1;entryX=1;entryY=0.5;entryDx=0;entryDy=0;entryPerimeter=0;" parent="1" source="J9Esz4CEdEwf7AcvDHHo-4" target="J9Esz4CEdEwf7AcvDHHo-6" edge="1">
                    <mxGeometry relative="1" as="geometry"/>
                </mxCell>
                <mxCell id="J9Esz4CEdEwf7AcvDHHo-26" style="edgeStyle=orthogonalEdgeStyle;rounded=0;orthogonalLoop=1;jettySize=auto;html=1;" parent="1" source="J9Esz4CEdEwf7AcvDHHo-4" target="J9Esz4CEdEwf7AcvDHHo-11" edge="1">
                    <mxGeometry relative="1" as="geometry"/>
                </mxCell>
                <mxCell id="J9Esz4CEdEwf7AcvDHHo-4" value="EKS Nodes" style="outlineConnect=0;fontColor=#232F3E;gradientColor=none;strokeColor=#ffffff;fillColor=#232F3E;dashed=0;verticalLabelPosition=middle;verticalAlign=bottom;align=center;html=1;whiteSpace=wrap;fontSize=10;fontStyle=1;spacing=3;shape=mxgraph.aws4.productIcon;prIcon=mxgraph.aws4.eks;" parent="1" vertex="1">
                    <mxGeometry x="300" y="-675" width="60" height="80" as="geometry"/>
                </mxCell>
                <mxCell id="J9Esz4CEdEwf7AcvDHHo-16" style="edgeStyle=orthogonalEdgeStyle;rounded=0;orthogonalLoop=1;jettySize=auto;html=1;" parent="1" source="J9Esz4CEdEwf7AcvDHHo-11" target="J9Esz4CEdEwf7AcvDHHo-13" edge="1">
                    <mxGeometry relative="1" as="geometry">
                        <Array as="points">
                            <mxPoint x="390" y="-550"/>
                            <mxPoint x="390" y="-460"/>
                            <mxPoint x="270" y="-460"/>
                        </Array>
                    </mxGeometry>
                </mxCell>
                <mxCell id="J9Esz4CEdEwf7AcvDHHo-17" value="" style="edgeStyle=orthogonalEdgeStyle;rounded=0;orthogonalLoop=1;jettySize=auto;html=1;" parent="1" source="J9Esz4CEdEwf7AcvDHHo-11" target="J9Esz4CEdEwf7AcvDHHo-14" edge="1">
                    <mxGeometry relative="1" as="geometry">
                        <Array as="points">
                            <mxPoint x="390" y="-550"/>
                            <mxPoint x="390" y="-460"/>
                            <mxPoint x="330" y="-460"/>
                        </Array>
                    </mxGeometry>
                </mxCell>
                <mxCell id="J9Esz4CEdEwf7AcvDHHo-18" value="" style="edgeStyle=orthogonalEdgeStyle;rounded=0;orthogonalLoop=1;jettySize=auto;html=1;entryX=0.5;entryY=0;entryDx=0;entryDy=0;entryPerimeter=0;" parent="1" source="J9Esz4CEdEwf7AcvDHHo-11" target="J9Esz4CEdEwf7AcvDHHo-15" edge="1">
                    <mxGeometry relative="1" as="geometry">
                        <Array as="points">
                            <mxPoint x="390" y="-550"/>
                        </Array>
                    </mxGeometry>
                </mxCell>
                <mxCell id="J9Esz4CEdEwf7AcvDHHo-11" value="VPC Endpoints" style="outlineConnect=0;fontColor=#232F3E;gradientColor=none;fillColor=#5A30B5;strokeColor=none;dashed=0;verticalLabelPosition=bottom;verticalAlign=top;align=center;html=1;fontSize=12;fontStyle=0;aspect=fixed;pointerEvents=1;shape=mxgraph.aws4.endpoints;" parent="1" vertex="1">
                    <mxGeometry x="300.5" y="-580" width="59" height="59" as="geometry"/>
                </mxCell>
                <mxCell id="J9Esz4CEdEwf7AcvDHHo-13" value="ECR" style="outlineConnect=0;dashed=0;verticalLabelPosition=bottom;verticalAlign=top;align=center;html=1;shape=mxgraph.aws3.ecr;fillColor=#F58534;gradientColor=none;" parent="1" vertex="1">
                    <mxGeometry x="250" y="-433" width="40.5" height="40" as="geometry"/>
                </mxCell>
                <mxCell id="J9Esz4CEdEwf7AcvDHHo-14" value="EC2" style="outlineConnect=0;dashed=0;verticalLabelPosition=bottom;verticalAlign=top;align=center;html=1;shape=mxgraph.aws3.ec2;fillColor=#F58534;gradientColor=none;" parent="1" vertex="1">
                    <mxGeometry x="309.5" y="-433" width="40.5" height="40" as="geometry"/>
                </mxCell>
                <mxCell id="J9Esz4CEdEwf7AcvDHHo-15" value="S3" style="outlineConnect=0;dashed=0;verticalLabelPosition=bottom;verticalAlign=top;align=center;html=1;shape=mxgraph.aws3.s3;fillColor=#E05243;gradientColor=none;" parent="1" vertex="1">
                    <mxGeometry x="370" y="-433" width="40" height="40" as="geometry"/>
                </mxCell>
                <mxCell id="3" value="" style="edgeStyle=orthogonalEdgeStyle;rounded=0;orthogonalLoop=1;jettySize=auto;html=1;" edge="1" parent="1" source="J9Esz4CEdEwf7AcvDHHo-21" target="2">
                    <mxGeometry relative="1" as="geometry"/>
                </mxCell>
                <mxCell id="J9Esz4CEdEwf7AcvDHHo-21" value="EKS" style="outlineConnect=0;fontColor=#232F3E;gradientColor=none;strokeColor=#ffffff;fillColor=#232F3E;dashed=0;verticalLabelPosition=middle;verticalAlign=bottom;align=center;html=1;whiteSpace=wrap;fontSize=10;fontStyle=1;spacing=3;shape=mxgraph.aws4.productIcon;prIcon=mxgraph.aws4.eks;" parent="1" vertex="1">
                    <mxGeometry x="450" y="-672.5" width="50" height="75" as="geometry"/>
                </mxCell>
                <mxCell id="J9Esz4CEdEwf7AcvDHHo-28" style="edgeStyle=orthogonalEdgeStyle;rounded=0;orthogonalLoop=1;jettySize=auto;html=1;startArrow=classic;startFill=1;" parent="1" source="J9Esz4CEdEwf7AcvDHHo-27" target="J9Esz4CEdEwf7AcvDHHo-5" edge="1">
                    <mxGeometry relative="1" as="geometry"/>
                </mxCell>
                <mxCell id="J9Esz4CEdEwf7AcvDHHo-27" value="Internet" style="outlineConnect=0;dashed=0;verticalLabelPosition=bottom;verticalAlign=top;align=center;html=1;shape=mxgraph.aws3.internet_2;fillColor=#D2D3D3;gradientColor=none;" parent="1" vertex="1">
                    <mxGeometry x="-200" y="-671.5" width="79.5" height="54" as="geometry"/>
                </mxCell>
                <mxCell id="2" value="KMS" style="outlineConnect=0;fontColor=#232F3E;gradientColor=#F54749;gradientDirection=north;fillColor=#C7131F;strokeColor=#ffffff;dashed=0;verticalLabelPosition=bottom;verticalAlign=top;align=center;html=1;fontSize=12;fontStyle=0;aspect=fixed;shape=mxgraph.aws4.resourceIcon;resIcon=mxgraph.aws4.key_management_service;" vertex="1" parent="1">
                    <mxGeometry x="450" y="-560" width="50" height="50" as="geometry"/>
                </mxCell>
            </root>
        </mxGraphModel>
    </diagram>
</mxfile>